<svg width="262" height="15" viewBox="0 0 262 15" fill="none" xmlns="http://www.w3.org/2000/svg">
<path d="M0 8L106.019 8" stroke="#485EC4"/>
<path d="M155 8L261.019 8" stroke="#485EC4"/>
<path d="M122.598 4.74219C122.98 4.3138 123.468 3.97884 124.061 3.7373C124.653 3.49121 125.28 3.36816 125.94 3.36816C127.741 3.36816 129.062 4.02897 129.905 5.35059C130.402 6.15267 130.65 7.10059 130.65 8.19434C130.65 9.30176 130.393 10.2611 129.878 11.0723C129.331 11.9473 128.593 12.5443 127.663 12.8633C127.166 13.0365 126.585 13.123 125.92 13.123C125.259 13.123 124.63 12.9977 124.033 12.7471C123.436 12.4919 122.946 12.1432 122.563 11.7012C121.784 10.7852 121.395 9.61621 121.395 8.19434C121.395 6.79069 121.796 5.63997 122.598 4.74219ZM127.868 4.84473C127.358 4.48926 126.752 4.31152 126.05 4.31152C125.353 4.31152 124.746 4.48242 124.231 4.82422C123.215 5.50326 122.707 6.62663 122.707 8.19434C122.707 9.78483 123.211 10.9287 124.218 11.626C124.728 11.9814 125.291 12.1592 125.906 12.1592C127.041 12.1592 127.907 11.7627 128.504 10.9697C129.074 10.2087 129.358 9.28353 129.358 8.19434C129.358 6.65853 128.862 5.54199 127.868 4.84473ZM135.613 13.123C133.33 13.123 132.188 12.084 132.188 10.0059V3.49121H133.426V9.67773C133.426 10.5299 133.622 11.1566 134.014 11.5576C134.406 11.9587 134.923 12.1592 135.565 12.1592C136.864 12.1592 137.514 11.2705 137.514 9.49316V3.49121H138.683V9.79395C138.683 10.8011 138.414 11.6077 137.876 12.2139C137.338 12.82 136.584 13.123 135.613 13.123Z" fill="#5657B2"/>
</svg>
