<svg width="35" height="35" viewBox="0 0 35 35" fill="none" xmlns="http://www.w3.org/2000/svg">
<circle cx="17.5" cy="17.5" r="17.5" fill="#FBFBFB"/>
<path d="M6.5834 20.167L7.94369 21.5355L10.8815 18.5915L9.5326 17.223L8.91533 16.602C8.42379 16.1075 8.16088 15.4635 8.16088 14.762C8.16088 14.1525 8.36664 13.6005 8.721 13.1635C9.2011 12.554 9.93268 12.163 10.7557 12.163C11.453 12.163 12.0931 12.439 12.5961 12.9335L13.2019 13.52L14.5622 14.9L17.5114 11.956L16.1397 10.5875L15.5224 9.9895C14.2993 8.759 12.619 8 10.7557 8C7.01778 8 4 11.036 4 14.7735C4 15.705 4.1829 16.5905 4.52583 17.407C4.86876 18.2235 5.36029 18.948 5.97756 19.5575L6.5834 20.167" fill="#353FAE"/>
<path d="M13.3162 22.053L17.5114 17.8555L14.5622 14.9L10.8814 18.5915L7.94366 21.5355L9.52114 23.134L10.8814 24.491L12.2989 23.065" fill="#B4B7F6"/>
<path d="M20.4378 28.194L27.0678 21.5355L24.1186 18.5915L17.5 25.2385L13.8192 21.547L10.8815 24.491L14.5623 28.194L14.5508 28.2055L17.5 31L20.4492 28.194H20.4378Z" fill="#3B90EA"/>
<path d="M29.0225 19.5578C30.3942 18.1778 31.1829 16.0618 30.9657 13.9228C30.6457 10.6798 27.9708 8.24176 24.7244 8.02326C22.6783 7.88526 20.8036 8.65576 19.4776 9.98976L14.5623 14.9003L17.5 17.8558L22.4153 12.9338C23.0098 12.3473 23.8328 12.0713 24.6787 12.2093C25.7761 12.3818 26.6677 13.2903 26.8163 14.3943C26.9306 15.2223 26.6562 16.0273 26.0733 16.6138L24.1186 18.5918L27.0678 21.5358L29.0225 19.5578V19.5578Z" fill="#5657B2"/>
</svg>
