<svg width="35" height="35" viewBox="0 0 35 35" fill="none" xmlns="http://www.w3.org/2000/svg">
<path d="M0 17.5C0 7.83504 7.83504 0 17.5 0C27.165 0 35 7.83504 35 17.5C35 27.165 27.165 35 17.5 35C7.83504 35 0 27.165 0 17.5Z" fill="#FBFBFB"/>
<path fill-rule="evenodd" clip-rule="evenodd" d="M17.999 11.6666H8.36284C8.25427 11.6666 8.16663 11.7524 8.16663 11.8571V23.2666C8.16663 23.3714 8.25427 23.4571 8.36284 23.4571H10.8923C11.0009 23.4571 11.0885 23.3714 11.0885 23.2666V14.3123C11.0885 14.2094 11.1761 14.1238 11.2847 14.1238H16.7362C18.2694 14.1238 18.7037 15.2838 18.7037 16.0324V23.2666C18.7037 23.3714 18.7914 23.4571 18.9 23.4571H21.4275C21.5361 23.4571 21.6238 23.3714 21.6238 23.2666V15.1733C21.6238 14.5047 21.5419 13.5447 20.6714 12.7009C19.7609 11.819 18.9285 11.6666 17.999 11.6666ZM26.6371 11.6666H24.1076C23.999 11.6666 23.9114 11.7524 23.9114 11.8571V23.2666C23.9114 23.3714 23.999 23.4571 24.1076 23.4571H26.6371C26.7456 23.4571 26.8333 23.3714 26.8333 23.2666V11.8571C26.8333 11.7524 26.7437 11.6666 26.6371 11.6666ZM13.5704 16.2114H16.2276C16.3361 16.2114 16.4238 16.2971 16.4238 16.3999V23.2685C16.4238 23.3733 16.3342 23.459 16.2276 23.459H13.5704C13.4638 23.459 13.3743 23.3733 13.3743 23.2685V16.4018C13.3743 16.2971 13.4618 16.2114 13.5704 16.2114Z" fill="#5657B2"/>
</svg>
