<svg xmlns="http://www.w3.org/2000/svg" version="1.1" xmlns:xlink="http://www.w3.org/1999/xlink" xmlns:svgjs="http://svgjs.dev/svgjs" viewBox="0 0 1920 1080"><rect width="1920" height="1080" fill="#b4b7f6"></rect><g transform="matrix(0.5750000000000001,0.9959292143521044,-0.9959292143521044,0.5750000000000001,934.6225932206868,-700.3951646635417)"><path d="M0,-1080C11.506910328132202,-930.0729267308648,66.21941226318927,-442.14217072014895,69.04146196879321,-180.43756038518882C71.86351167439716,81.26704994977132,37.186682808148305,224.28983777865267,16.93229823362367,490.227662009761C-3.3220863409009667,756.1654862408693,-49.662795772750655,1136.893995336421,-52.4848454783546,1415.189385001461C-55.306895183958545,1693.484774666501,-8.747474246392434,2035.8648975002434,0,2160L 1920 2160 L 1920 -1080 Z" fill="url(&quot;#SvgjsLinearGradient1406&quot;)"></path><path d="M160,-1080C157.58073792755826,-981.9845117408375,142.559744356129,-653.1734455929083,145.4844275653496,-491.9070704450255C148.4091107745702,-330.64069529714277,172.08790972674447,-230.79415722369072,177.54809925532356,-112.40174911270338C183.00828878390266,5.990658998283934,196.3590827123359,92.41027419272797,178.24556473682418,218.44737822089832C160.13204676131247,344.48448224906866,76.2031954502566,456.76492543291715,68.86699140225329,643.8208750563188C61.53078735424998,830.8768246797204,120.33724557665879,1148.3056478971594,134.22834044880432,1340.7830759613078C148.11943532094986,1533.2605040254562,147.91828404326054,1662.1492894347605,152.2135606351265,1798.6854434412091C156.50883722699245,1935.2215974476578,158.7022601058544,2099.7809072402015,160,2160L 1920 2160 L 1920 -1080 Z" fill="url(&quot;#SvgjsLinearGradient1407&quot;)"></path><path d="M320,-1080C338.2104323165344,-998.8190112030144,420.3175380371515,-746.9879990275891,429.2625938992066,-592.9140672180863C438.2076497612617,-438.8401354085835,383.783335207077,-284.12335487810526,373.6703351723306,-155.55640914298334C363.55733513758423,-26.98946340786145,375.84194320575915,51.03357018891694,368.58459369072807,178.48760719264516C361.327244175697,305.9416441963734,320.73960737585196,462.499157740172,330.126238082144,609.1678128793859C339.5128687884361,755.8364680185998,442.13369890044874,944.9232507054571,424.90437792848036,1058.4995380279286C407.675056956512,1172.0758253504,222.96411867942982,1186.1631973180606,226.75031225033388,1290.6255368142142C230.53650582123794,1395.0878763103678,432.0799247289603,1540.3778311405524,447.62153935390467,1685.27357500485C463.16315397884904,1830.1693188691477,341.2702565589841,2080.878929167475,320,2160L 1920 2160 L 1920 -1080 Z" fill="url(&quot;#SvgjsLinearGradient1408&quot;)"></path><path d="M480,-1080C464.292942194901,-958.7190416079551,399.42127924448533,-548.9941757120512,385.7576531694061,-352.3142496477307C372.0940270943269,-155.63432358341032,388.78063011385433,-105.93456363867037,398.01824354952464,100.07955638592233C407.25585698519495,306.09367641051506,423.2723356460733,651.7529661408746,441.18333378342805,883.7704704998255C459.0943319207828,1115.7879748587764,499.01478800422433,1279.4796609562654,505.484232373653,1492.1845825396279C511.9536767430817,1704.8895041229903,484.24737206227553,2048.6974304232713,480,2160L 1920 2160 L 1920 -1080 Z" fill="url(&quot;#SvgjsLinearGradient1409&quot;)"></path><path d="M640,-1080C637.3187975892499,-995.0747766029333,624.1818908262716,-710.301395466151,623.9127855354998,-570.4486596176C623.643680244728,-430.595923769049,622.8967337521811,-388.63529203952487,638.3853682553695,-240.88358490869405C653.8740027585578,-93.13187777786322,710.8871637359597,155.74018145398378,716.8445925546297,316.06158316738487C722.8020213732997,476.38298488078595,703.1901404694678,581.4243327406459,674.1299411673896,721.0448253717125C645.0697418653114,860.665318002779,560.8553749979392,982.6605410201994,542.4833967421603,1153.7845389537842C524.1114184863814,1324.908536887369,547.6453044230761,1580.0862361321856,563.8980716327161,1747.7888129732216C580.150838842356,1915.4913898142577,627.3163452721194,2091.298135495537,640,2160L 1920 2160 L 1920 -1080 Z" fill="url(&quot;#SvgjsLinearGradient1410&quot;)"></path><path d="M800,-1080C803.6218877099756,-999.7197036953729,842.4089791646943,-766.7124023998007,821.7313262598532,-598.3182221722376C801.053673355012,-429.9240419446745,687.1173740738627,-215.85330734644032,675.934082570953,-69.63491863462144C664.7507910680433,76.58347007719743,754.8568214894296,144.1790776219215,754.6315772423952,278.9921100986756C754.4063329953608,413.8051425754297,675.3602683432852,569.99949925912,674.5826170887465,739.2432762259032C673.8049658342078,908.4870531926864,725.9076395702984,1114.618929458399,749.9656697151631,1294.454771899375C774.0236998600278,1474.2906143403509,810.5917429104616,1674.0007928549885,818.9307979579344,1818.2583308717594C827.2698530054072,1962.5158688885303,803.155132992989,2103.0430551452932,800,2160L 1920 2160 L 1920 -1080 Z" fill="url(&quot;#SvgjsLinearGradient1411&quot;)"></path><path d="M960,-1080C950.529714159551,-973.7693052238328,901.5409979045514,-662.8330320591317,903.1782849573056,-442.6158313429967C904.8155720100597,-222.39863062686172,960.447463996477,42.3605800281218,969.8237223165247,241.30320429681C979.1999806365724,440.2458285654982,944.15383286035,526.2164495834852,959.4358348775913,751.0399142691326C974.7178368948327,975.86337895478,1061.421706899571,1355.4173114555497,1061.5157344199724,1590.2439924106943C1061.6097619403738,1825.070673365839,976.9192890699954,2065.0406654017825,960,2160L 1920 2160 L 1920 -1080 Z" fill="url(&quot;#SvgjsLinearGradient1412&quot;)"></path><path d="M1120,-1080C1117.0041398444532,-1013.6339673581142,1092.5859622870892,-816.7636976598376,1102.0248390667193,-681.803804148685C1111.4637158463495,-546.8439106375324,1185.227971665823,-414.4115272669429,1176.6332606777812,-270.24063893308426C1168.0385496897395,-126.06975059922559,1045.2210301518094,55.319993387774446,1050.4565731384691,183.22152585446696C1055.692116125129,311.1230583211595,1179.8318913013065,349.37450714333653,1208.0465185977405,497.1685558670708C1236.2611458941744,644.9626045908051,1254.1431824979757,907.5456641314925,1219.7443369170733,1069.9858181968725C1185.3454913361709,1232.4259722622526,1022.4704507440224,1362.6391733644662,1001.6534451123262,1471.8094802593514C980.8364394806299,1580.9797871542366,1075.1178773122836,1610.309239609409,1094.8423031268958,1725.0076595661837C1114.566728941508,1839.7060795229586,1115.8070505211492,2087.501276594364,1120,2160L 1920 2160 L 1920 -1080 Z" fill="url(&quot;#SvgjsLinearGradient1413&quot;)"></path><path d="M1280,-1080C1261.4413968138172,-1007.7497990647772,1175.35405889826,-835.7003577512888,1168.6483808829025,-646.4987943886634C1161.942702867545,-457.29723102603805,1234.203998114327,-140.81536670293795,1239.7659319078555,55.20938017575236C1245.3278657013839,251.23412705444267,1216.6353084360585,371.48153865800737,1202.0199836440736,529.6496868834786C1187.4046588520887,687.8178351089498,1146.998642539042,810.6863140876009,1152.0739831559458,1004.2182695285795C1157.1493237728496,1197.750224969558,1211.1510245381542,1498.211131117447,1232.4720273454966,1690.8414195293503C1253.793030152839,1883.4717079412537,1272.0786712242493,2081.806903254892,1280,2160L 1920 2160 L 1920 -1080 Z" fill="url(&quot;#SvgjsLinearGradient1414&quot;)"></path><path d="M1440,-1080C1456.4852611330318,-999.2439699807788,1543.672257722347,-734.3876965664633,1538.9115667981905,-595.4638198846728C1534.150875874034,-456.53994320288234,1420.8290851778381,-399.10529455202703,1411.435854455061,-246.456739909257C1402.0426237322838,-93.80818526648699,1481.8518538971,170.86247601145428,1482.552182461528,320.42750797194736C1483.252511025956,469.9925399324404,1435.3021608841877,503.37071778758707,1415.6378258416294,650.9334518537014C1395.973490799071,798.4961859198157,1355.460375345293,1046.5373228160797,1364.5661722061775,1205.8039123686333C1373.671969067062,1365.0705019211869,1457.7003023746329,1447.5003078971276,1470.2726070069366,1606.5329891690221C1482.8449116392403,1765.5656704409166,1445.045434501156,2067.755498194837,1440,2160L 1920 2160 L 1920 -1080 Z" fill="url(&quot;#SvgjsLinearGradient1415&quot;)"></path><path d="M1600,-1080C1590.9527518266832,-972.9656687017356,1542.0689674824957,-628.0388385010292,1545.7165109600987,-437.7940122104135C1549.3640544377017,-247.5491859197978,1625.6374404463393,-104.5663678894197,1621.8852608656184,61.46895774369415C1618.1330812848976,227.504283376808,1544.1045336590614,405.91675260012096,1523.2034334757732,558.4179415882695C1502.302333292485,710.9191305764181,1490.3850408152493,783.9574888624768,1496.4786597658895,976.4760916725852C1502.5722787165296,1168.9946944826936,1542.5115904739293,1516.2755737276843,1559.7651471796144,1713.5295584489202C1577.0187038852994,1910.783543170156,1593.2941911966025,2085.5882597414866,1600,2160L 1920 2160 L 1920 -1080 Z" fill="url(&quot;#SvgjsLinearGradient1416&quot;)"></path><path d="M1760,-1080C1741.1897906584263,-1003.8625145844206,1643.813377294302,-792.1754918867996,1647.1387439505577,-623.1750875065236C1650.4641106068134,-454.1746831262476,1766.1697168458554,-268.9077054523798,1779.9521999375345,-65.99757371834392C1793.7346830292136,136.91255801569199,1712.5024581847601,422.3323045333834,1729.8336425006328,594.2857028976919C1747.1648268165054,766.2391012620003,1887.6339319706126,777.565596430705,1883.9393058327696,965.7228164675068C1880.2446796949266,1153.8800365043087,1728.3224366457032,1524.1828258630871,1707.6658856735748,1723.2290231185027C1687.0093347014465,1922.2752203739183,1751.2776476122624,2087.204837186417,1760,2160L 1920 2160 L 1920 -1080 Z" fill="url(&quot;#SvgjsLinearGradient1417&quot;)"></path></g><defs><linearGradient x1="0.1" y1="0" x2="0" y2="1" id="SvgjsLinearGradient1406"><stop stop-color="#b4b7f6" offset="0"></stop><stop stop-color="#b4c2f6" offset="0"></stop></linearGradient><linearGradient x1="0.1" y1="0" x2="0" y2="1" id="SvgjsLinearGradient1407"><stop stop-color="#bec0f7" offset="0"></stop><stop stop-color="#bec9f7" offset="0.08333333333333333"></stop></linearGradient><linearGradient x1="0.1" y1="0" x2="0" y2="1" id="SvgjsLinearGradient1408"><stop stop-color="#c8caf8" offset="0"></stop><stop stop-color="#c8d2f8" offset="0.16666666666666666"></stop></linearGradient><linearGradient x1="0.1" y1="0" x2="0" y2="1" id="SvgjsLinearGradient1409"><stop stop-color="#d1d3fa" offset="0"></stop><stop stop-color="#d1dafa" offset="0.25"></stop></linearGradient><linearGradient x1="0.1" y1="0" x2="0" y2="1" id="SvgjsLinearGradient1410"><stop stop-color="#dbddfb" offset="0"></stop><stop stop-color="#dbe2fb" offset="0.3333333333333333"></stop></linearGradient><linearGradient x1="0.1" y1="0" x2="0" y2="1" id="SvgjsLinearGradient1411"><stop stop-color="#e5e6fc" offset="0"></stop><stop stop-color="#e5eafc" offset="0.4166666666666667"></stop></linearGradient><linearGradient x1="0.1" y1="0" x2="0" y2="1" id="SvgjsLinearGradient1412"><stop stop-color="#efeffd" offset="0"></stop><stop stop-color="#eff1fd" offset="0.5"></stop></linearGradient><linearGradient x1="0.1" y1="0" x2="0" y2="1" id="SvgjsLinearGradient1413"><stop stop-color="#f8f9fe" offset="0"></stop><stop stop-color="#f8fafe" offset="0.5833333333333334"></stop></linearGradient><linearGradient x1="0.1" y1="0" x2="0" y2="1" id="SvgjsLinearGradient1414"><stop stop-color="#ffffff" offset="0"></stop><stop stop-color="#ffffff" offset="0.6666666666666666"></stop></linearGradient><linearGradient x1="0.1" y1="0" x2="0" y2="1" id="SvgjsLinearGradient1415"><stop stop-color="#ffffff" offset="0"></stop><stop stop-color="#ffffff" offset="0.75"></stop></linearGradient><linearGradient x1="0.1" y1="0" x2="0" y2="1" id="SvgjsLinearGradient1416"><stop stop-color="#ffffff" offset="0"></stop><stop stop-color="#ffffff" offset="0.8333333333333334"></stop></linearGradient><linearGradient x1="0.1" y1="0" x2="0" y2="1" id="SvgjsLinearGradient1417"><stop stop-color="#ffffff" offset="0"></stop><stop stop-color="#ffffff" offset="0.9166666666666666"></stop></linearGradient></defs></svg>